<?xml version="1.0" encoding="utf-8"?>
<!-- Generator: Adobe Illustrator 19.2.1, SVG Export Plug-In . SVG Version: 6.00 Build 0)  -->
<svg version="1.1" xmlns="http://www.w3.org/2000/svg" xmlns:xlink="http://www.w3.org/1999/xlink" x="0px" y="0px"
	 viewBox="0 0 652 652" style="enable-background:new 0 0 652 652;" xml:space="preserve">
<style type="text/css">
	.st0{display:none;}
	.st1{display:inline;}
	.st2{fill:#0C0407;}
	.st3{fill:#65378E;}
</style>
<g id="Layer_1" class="st0">
	<g class="st1">
		<path class="st2" d="M240,670.9l1.6-0.1c0.1,0.6,0.3,1.2,0.5,1.6c0.3,0.4,0.7,0.7,1.3,1c0.6,0.3,1.2,0.4,2,0.4
			c0.7,0,1.2-0.1,1.7-0.3s0.9-0.5,1.1-0.8s0.4-0.7,0.4-1.1c0-0.4-0.1-0.8-0.4-1.1s-0.6-0.6-1.2-0.8c-0.3-0.1-1.1-0.3-2.3-0.6
			s-2-0.6-2.5-0.8c-0.6-0.3-1.1-0.7-1.4-1.2c-0.3-0.5-0.5-1-0.5-1.6c0-0.7,0.2-1.3,0.6-1.8s0.9-1,1.6-1.3s1.5-0.4,2.4-0.4
			c1,0,1.8,0.2,2.5,0.5c0.7,0.3,1.3,0.8,1.7,1.4s0.6,1.3,0.6,2l-1.6,0.1c-0.1-0.8-0.4-1.4-0.9-1.8c-0.5-0.4-1.3-0.6-2.2-0.6
			c-1,0-1.8,0.2-2.3,0.6c-0.5,0.4-0.7,0.8-0.7,1.4c0,0.5,0.2,0.8,0.5,1.1c0.3,0.3,1.2,0.6,2.6,0.9c1.4,0.3,2.3,0.6,2.9,0.8
			c0.8,0.3,1.3,0.8,1.7,1.3s0.5,1.1,0.5,1.8c0,0.7-0.2,1.3-0.6,1.9c-0.4,0.6-1,1.1-1.7,1.4c-0.7,0.3-1.6,0.5-2.5,0.5
			c-1.2,0-2.1-0.2-2.9-0.5c-0.8-0.3-1.4-0.9-1.9-1.5C240.3,672.6,240,671.8,240,670.9z"/>
		<path class="st2" d="M258.8,672.1l1.6,0.2c-0.3,1-0.7,1.7-1.4,2.2s-1.6,0.8-2.7,0.8c-1.4,0-2.4-0.4-3.2-1.3
			c-0.8-0.8-1.2-2-1.2-3.5c0-1.6,0.4-2.8,1.2-3.7s1.9-1.3,3.1-1.3c1.2,0,2.3,0.4,3.1,1.3s1.2,2,1.2,3.6c0,0.1,0,0.2,0,0.4h-7
			c0.1,1,0.3,1.8,0.9,2.4s1.2,0.8,2,0.8c0.6,0,1.1-0.2,1.5-0.5S258.6,672.7,258.8,672.1z M253.6,669.5h5.2c-0.1-0.8-0.3-1.4-0.6-1.8
			c-0.5-0.6-1.2-0.9-2-0.9c-0.7,0-1.3,0.2-1.8,0.7S253.6,668.7,253.6,669.5z"/>
		<path class="st2" d="M268.8,672.1l1.6,0.2c-0.3,1-0.7,1.7-1.4,2.2s-1.6,0.8-2.7,0.8c-1.4,0-2.4-0.4-3.2-1.3
			c-0.8-0.8-1.2-2-1.2-3.5c0-1.6,0.4-2.8,1.2-3.7s1.9-1.3,3.1-1.3c1.2,0,2.3,0.4,3.1,1.3s1.2,2,1.2,3.6c0,0.1,0,0.2,0,0.4h-7
			c0.1,1,0.3,1.8,0.9,2.4s1.2,0.8,2,0.8c0.6,0,1.1-0.2,1.5-0.5S268.6,672.7,268.8,672.1z M263.6,669.5h5.2c-0.1-0.8-0.3-1.4-0.6-1.8
			c-0.5-0.6-1.2-0.9-2-0.9c-0.7,0-1.3,0.2-1.8,0.7S263.7,668.7,263.6,669.5z"/>
		<path class="st2" d="M272.4,675.1v-12.9h1.6v7.3l3.7-3.8h2l-3.6,3.5l3.9,5.9h-2l-3.1-4.8l-1.1,1.1v3.7H272.4z"/>
		<path class="st2" d="M285.3,675.1l-5-12.9h1.8l3.3,9.4c0.3,0.8,0.5,1.5,0.7,2.1c0.2-0.7,0.4-1.4,0.7-2.1l3.5-9.4h1.7l-5,12.9
			H285.3z"/>
		<path class="st2" d="M298.8,672.1l1.6,0.2c-0.3,1-0.7,1.7-1.4,2.2s-1.6,0.8-2.7,0.8c-1.4,0-2.4-0.4-3.2-1.3
			c-0.8-0.8-1.2-2-1.2-3.5c0-1.6,0.4-2.8,1.2-3.7s1.9-1.3,3.1-1.3c1.2,0,2.3,0.4,3.1,1.3s1.2,2,1.2,3.6c0,0.1,0,0.2,0,0.4h-7
			c0.1,1,0.3,1.8,0.9,2.4s1.2,0.8,2,0.8c0.6,0,1.1-0.2,1.5-0.5S298.6,672.7,298.8,672.1z M293.6,669.5h5.2c-0.1-0.8-0.3-1.4-0.6-1.8
			c-0.5-0.6-1.2-0.9-2-0.9c-0.7,0-1.3,0.2-1.8,0.7S293.7,668.7,293.6,669.5z"/>
		<path class="st2" d="M308.5,671.7l1.6,0.2c-0.2,1.1-0.6,1.9-1.3,2.5c-0.7,0.6-1.6,0.9-2.6,0.9c-1.3,0-2.3-0.4-3.1-1.3
			c-0.8-0.8-1.2-2-1.2-3.6c0-1,0.2-1.9,0.5-2.6s0.8-1.3,1.5-1.7c0.7-0.4,1.4-0.6,2.2-0.6c1,0,1.8,0.3,2.5,0.8s1.1,1.2,1.2,2.2
			l-1.5,0.2c-0.1-0.6-0.4-1.1-0.8-1.4s-0.8-0.5-1.3-0.5c-0.8,0-1.4,0.3-1.9,0.9c-0.5,0.6-0.7,1.5-0.7,2.7c0,1.3,0.2,2.2,0.7,2.7
			s1.1,0.9,1.9,0.9c0.6,0,1.1-0.2,1.6-0.6S308.4,672.4,308.5,671.7z"/>
		<path class="st2" d="M314.9,673.7l0.2,1.4c-0.4,0.1-0.8,0.1-1.2,0.1c-0.6,0-1-0.1-1.3-0.3s-0.5-0.4-0.7-0.7s-0.2-0.9-0.2-1.9V667
			h-1.2v-1.2h1.2v-2.3l1.6-0.9v3.3h1.6v1.2h-1.6v5.5c0,0.5,0,0.7,0.1,0.9s0.1,0.2,0.3,0.3c0.1,0.1,0.3,0.1,0.5,0.1
			C314.4,673.7,314.6,673.7,314.9,673.7z"/>
		<path class="st2" d="M315.9,670.4c0-1.7,0.5-3,1.4-3.8c0.8-0.7,1.8-1,2.9-1c1.3,0,2.3,0.4,3.1,1.3s1.2,2,1.2,3.5
			c0,1.2-0.2,2.1-0.5,2.8c-0.4,0.7-0.9,1.2-1.6,1.6s-1.4,0.6-2.3,0.6c-1.3,0-2.4-0.4-3.2-1.3C316.3,673.2,315.9,672,315.9,670.4z
			 M317.5,670.4c0,1.2,0.3,2.1,0.8,2.7c0.5,0.6,1.2,0.9,2,0.9c0.8,0,1.4-0.3,2-0.9s0.8-1.5,0.8-2.7c0-1.2-0.3-2-0.8-2.6
			c-0.5-0.6-1.2-0.9-2-0.9c-0.8,0-1.4,0.3-2,0.9S317.5,669.2,317.5,670.4z"/>
		<path class="st2" d="M326.4,675.1v-9.3h1.4v1.4c0.4-0.7,0.7-1.1,1-1.3c0.3-0.2,0.6-0.3,1-0.3c0.5,0,1.1,0.2,1.6,0.5l-0.5,1.5
			c-0.4-0.2-0.8-0.3-1.2-0.3c-0.3,0-0.7,0.1-0.9,0.3s-0.5,0.5-0.6,0.9c-0.2,0.6-0.3,1.2-0.3,1.8v4.9H326.4z"/>
		<path class="st2" d="M332.6,675.1v-12.9h1.7v11.4h6.3v1.5H332.6z"/>
		<path class="st2" d="M341.9,670.4c0-1.7,0.5-3,1.4-3.8c0.8-0.7,1.8-1,2.9-1c1.3,0,2.3,0.4,3.1,1.3s1.2,2,1.2,3.5
			c0,1.2-0.2,2.1-0.5,2.8c-0.4,0.7-0.9,1.2-1.6,1.6s-1.4,0.6-2.3,0.6c-1.3,0-2.4-0.4-3.2-1.3C342.3,673.2,341.9,672,341.9,670.4z
			 M343.5,670.4c0,1.2,0.3,2.1,0.8,2.7c0.5,0.6,1.2,0.9,2,0.9c0.8,0,1.4-0.3,2-0.9s0.8-1.5,0.8-2.7c0-1.2-0.3-2-0.8-2.6
			c-0.5-0.6-1.2-0.9-2-0.9c-0.8,0-1.4,0.3-2,0.9S343.5,669.2,343.5,670.4z"/>
		<path class="st2" d="M352.2,675.8l1.5,0.2c0.1,0.5,0.2,0.8,0.5,1c0.4,0.3,0.9,0.4,1.6,0.4c0.7,0,1.3-0.1,1.7-0.4s0.7-0.7,0.8-1.2
			c0.1-0.3,0.1-1,0.1-2c-0.7,0.8-1.6,1.2-2.6,1.2c-1.3,0-2.3-0.5-3-1.4s-1.1-2-1.1-3.3c0-0.9,0.2-1.7,0.5-2.5
			c0.3-0.8,0.8-1.3,1.4-1.7s1.3-0.6,2.2-0.6c1.1,0,2,0.4,2.7,1.3v-1.1h1.5v8.1c0,1.5-0.1,2.5-0.4,3.1c-0.3,0.6-0.8,1.1-1.4,1.4
			c-0.6,0.4-1.4,0.5-2.4,0.5c-1.1,0-2-0.3-2.7-0.8C352.5,677.6,352.2,676.9,352.2,675.8z M353.5,670.2c0,1.2,0.2,2.1,0.7,2.7
			s1.1,0.8,1.8,0.8c0.7,0,1.3-0.3,1.8-0.8s0.7-1.4,0.7-2.6c0-1.1-0.3-2-0.8-2.6c-0.5-0.6-1.1-0.9-1.8-0.9c-0.7,0-1.3,0.3-1.8,0.9
			C353.7,668.3,353.5,669.1,353.5,670.2z"/>
		<path class="st2" d="M361.9,670.4c0-1.7,0.5-3,1.4-3.8c0.8-0.7,1.8-1,2.9-1c1.3,0,2.3,0.4,3.1,1.3s1.2,2,1.2,3.5
			c0,1.2-0.2,2.1-0.5,2.8c-0.4,0.7-0.9,1.2-1.6,1.6s-1.4,0.6-2.3,0.6c-1.3,0-2.4-0.4-3.2-1.3C362.3,673.2,361.9,672,361.9,670.4z
			 M363.5,670.4c0,1.2,0.3,2.1,0.8,2.7c0.5,0.6,1.2,0.9,2,0.9c0.8,0,1.4-0.3,2-0.9s0.8-1.5,0.8-2.7c0-1.2-0.3-2-0.8-2.6
			c-0.5-0.6-1.2-0.9-2-0.9c-0.8,0-1.4,0.3-2,0.9S363.5,669.2,363.5,670.4z"/>
		<path class="st2" d="M372.9,675.1v-1.8h1.8v1.8H372.9z"/>
		<path class="st2" d="M386.9,670.6l1.7,0.4c-0.4,1.4-1,2.5-1.9,3.2s-2.1,1.1-3.4,1.1c-1.4,0-2.5-0.3-3.4-0.8
			c-0.9-0.6-1.5-1.4-2-2.5c-0.5-1.1-0.7-2.2-0.7-3.5c0-1.3,0.3-2.5,0.8-3.5c0.5-1,1.2-1.8,2.2-2.3c0.9-0.5,2-0.8,3.1-0.8
			c1.3,0,2.4,0.3,3.3,1s1.5,1.6,1.8,2.8l-1.7,0.4c-0.3-0.9-0.7-1.6-1.3-2s-1.3-0.6-2.1-0.6c-1,0-1.8,0.2-2.5,0.7
			c-0.7,0.5-1.1,1.1-1.4,1.9c-0.3,0.8-0.4,1.6-0.4,2.5c0,1.1,0.2,2.1,0.5,2.9c0.3,0.8,0.8,1.4,1.5,1.8s1.4,0.6,2.2,0.6
			c1,0,1.8-0.3,2.4-0.8S386.7,671.6,386.9,670.6z"/>
		<path class="st2" d="M389.9,670.4c0-1.7,0.5-3,1.4-3.8c0.8-0.7,1.8-1,2.9-1c1.3,0,2.3,0.4,3.1,1.3s1.2,2,1.2,3.5
			c0,1.2-0.2,2.1-0.5,2.8c-0.4,0.7-0.9,1.2-1.6,1.6s-1.4,0.6-2.3,0.6c-1.3,0-2.4-0.4-3.2-1.3C390.3,673.2,389.9,672,389.9,670.4z
			 M391.5,670.4c0,1.2,0.3,2.1,0.8,2.7c0.5,0.6,1.2,0.9,2,0.9c0.8,0,1.4-0.3,2-0.9s0.8-1.5,0.8-2.7c0-1.2-0.3-2-0.8-2.6
			c-0.5-0.6-1.2-0.9-2-0.9c-0.8,0-1.4,0.3-2,0.9S391.5,669.2,391.5,670.4z"/>
		<path class="st2" d="M400.5,675.1v-9.3h1.4v1.3c0.3-0.5,0.7-0.8,1.2-1.1s1-0.4,1.7-0.4c0.7,0,1.3,0.1,1.7,0.4
			c0.4,0.3,0.8,0.7,0.9,1.2c0.7-1.1,1.7-1.6,2.9-1.6c0.9,0,1.6,0.3,2.1,0.8s0.7,1.3,0.7,2.4v6.4h-1.6v-5.9c0-0.6-0.1-1.1-0.2-1.4
			c-0.1-0.3-0.3-0.5-0.6-0.7s-0.6-0.3-0.9-0.3c-0.7,0-1.2,0.2-1.6,0.7c-0.4,0.4-0.7,1.1-0.7,2.1v5.4h-1.6V669c0-0.7-0.1-1.2-0.4-1.6
			s-0.7-0.5-1.3-0.5c-0.4,0-0.9,0.1-1.2,0.4c-0.4,0.2-0.7,0.6-0.8,1s-0.3,1.1-0.3,2v4.8H400.5z"/>
	</g>
</g>
<g id="Layer_2">
	<g>
		<g>
			<path class="st3" d="M249.2,314.5c1-1.9,1.5-3.5,1.5-5v-0.1c0-1.4-0.4-2.5-1.1-3.4c-0.7-0.8-1.7-1.3-2.8-1.3
				c-0.8,0-1.6,0.2-2.1,0.6c-0.6,0.4-1,0.9-1.2,1.5c-0.2,0.4-0.3,0.9-0.3,1.4c0,0.2,0,0.3,0,0.5c0.1,0.7,0.3,1.2,0.8,1.7
				c0.6,0.7,1,1.6,1,2.5c0,0.2,0,0.5-0.1,0.7c-0.2,1.2-1.2,2.7-2.8,4.4c0.2,0.2,2.2,1.9,2.4,2.1
				C246.6,318.2,248.3,316.3,249.2,314.5"/>
			<path class="st3" d="M295.9,335.3c-8.4-3.3-14.4-11.4-14.4-20.8c0-12.4,10.3-22.4,22.9-22.4c12.6,0,22.9,10,22.9,22.4
				c0,4.9-1.6,9.5-4.4,13.1v0l-1.5,2.1h0c-1.9,2.6-3.1,5.8-3.1,9.2c0,8.6,7.1,15.5,15.9,15.5s15.9-7,15.9-15.5
				c0-7.5-5.4-13.7-12.6-15.2c-0.5-0.1-3.4-1-3.5-4.4V317v-18h7.6v17.6c0,1.2,1.1,1.6,1.1,1.6v0c8.4,3.3,14.4,11.4,14.4,20.8
				c0,12.3-10.3,22.4-22.9,22.4c-12.6,0-22.9-10.1-22.9-22.4c0-4.9,1.6-9.5,4.4-13.2l0,0l1.5-2.1l0,0c1.9-2.6,3.1-5.8,3.1-9.2
				c0-8.6-7.1-15.5-15.9-15.5c-8.8,0-15.9,7-15.9,15.5c0,7.4,5.4,13.7,12.5,15.2c0,0,3.4,0.7,3.6,4.3v20.5H297v-17.6
				C297,336.6,296.9,335.8,295.9,335.3"/>
			<path class="st3" d="M387.4,329.9c-1.7,0-3.2,0.1-4.3,0.3c-1.1,0.2-2,0.5-2.6,0.9c-0.6,0.4-1,0.8-1.3,1.3
				c-0.2,0.5-0.3,0.9-0.3,1.4c0,0.8,0.3,1.4,0.8,1.9c0.5,0.5,1.3,0.7,2.2,0.7c0.8,0,1.5-0.2,2.2-0.5c0.7-0.3,1.2-0.8,1.7-1.3
				c0.5-0.6,0.8-1.2,1.1-1.9c0.3-0.7,0.4-1.4,0.4-2.2V329.9z M396.5,336.3c0.6,0.1,1.1,0.3,1.4,0.7c0.4,0.4,0.6,0.9,0.6,1.5
				c0,0.6-0.2,1.1-0.6,1.5c-0.4,0.4-0.9,0.6-1.6,0.8c-0.6,0.1-1.6,0.1-3,0.2c-1.3,0.1-3.1,0.1-5.4,0c0-0.5,0-1.1,0.1-1.6
				c0-0.5,0.1-0.9,0.1-1.4c0-0.5,0.1-0.9,0.1-1.2l0-0.1c-0.6,1.4-1.7,2.6-3.1,3.5c-1.5,0.9-3.1,1.4-5.1,1.4c-2.3,0-4.1-0.6-5.3-1.8
				c-1.3-1.2-1.9-2.8-1.9-4.8c0-1.5,0.4-2.8,1.1-4c0.7-1.1,1.7-2.1,3-2.9c1.3-0.8,2.8-1.3,4.6-1.7c1.8-0.4,3.8-0.6,5.9-0.6v-1.3
				c0-1.3-0.4-2.3-1.1-2.9c-0.7-0.7-2-1-3.9-1c-1.2,0-2.4,0.2-3.8,0.5c-1.4,0.3-2.6,0.8-3.7,1.4l-0.6-5.3c1.3-0.5,2.7-0.8,4.3-1.1
				c1.5-0.3,3.1-0.4,4.8-0.4c2,0,3.7,0.2,5.1,0.6c1.3,0.4,2.4,0.9,3.2,1.7c0.8,0.7,1.4,1.6,1.7,2.7c0.3,1.1,0.5,2.3,0.5,3.6V336
				c0.4,0.1,0.8,0.1,1.3,0.1C395.7,336.2,396.1,336.2,396.5,336.3"/>
			<path class="st3" d="M418.1,333.2c0,1.2-0.3,2.4-0.8,3.4c-0.5,1-1.3,1.9-2.3,2.6c-1,0.7-2.2,1.3-3.6,1.7c-1.4,0.4-3,0.6-4.7,0.6
				c-0.9,0-1.8,0-2.7-0.1c-0.9-0.1-1.8-0.2-2.6-0.3l0.2-5.3c0.8,0.2,1.6,0.4,2.6,0.5c0.9,0.1,1.9,0.2,2.9,0.2c1.3,0,2.3-0.2,3-0.7
				c0.8-0.5,1.1-1.1,1.1-1.9c0-0.7-0.3-1.3-0.8-1.7c-0.5-0.4-1.2-0.8-1.9-1.1c-0.8-0.3-1.6-0.6-2.5-0.9c-0.9-0.3-1.7-0.7-2.5-1.2
				c-0.8-0.5-1.4-1.2-1.9-2.1c-0.5-0.9-0.8-2-0.8-3.4c0-1.1,0.2-2.1,0.7-3.1c0.5-0.9,1.1-1.8,2-2.5c0.9-0.7,2-1.3,3.4-1.7
				c1.4-0.4,3-0.6,4.7-0.6c0.8,0,1.5,0,2.3,0.1c0.8,0.1,1.6,0.2,2.4,0.3l-0.2,5c-0.7-0.2-1.5-0.4-2.3-0.5c-0.8-0.1-1.6-0.2-2.4-0.2
				c-1.3,0-2.3,0.2-2.9,0.7c-0.6,0.5-0.9,1.1-0.9,1.9c0,0.7,0.3,1.2,0.8,1.6c0.5,0.4,1.2,0.8,2,1.1c0.8,0.3,1.6,0.6,2.5,1
				c0.9,0.3,1.7,0.8,2.5,1.3c0.8,0.5,1.4,1.2,2,2.1C417.8,330.8,418.1,331.9,418.1,333.2"/>
			<path class="st3" d="M439.1,333.2c0,1.2-0.3,2.4-0.8,3.4c-0.5,1-1.3,1.9-2.3,2.6c-1,0.7-2.2,1.3-3.6,1.7c-1.4,0.4-3,0.6-4.7,0.6
				c-0.9,0-1.8,0-2.7-0.1c-0.9-0.1-1.8-0.2-2.6-0.3l0.2-5.3c0.8,0.2,1.6,0.4,2.6,0.5c0.9,0.1,1.9,0.2,2.9,0.2c1.3,0,2.3-0.2,3-0.7
				c0.8-0.5,1.1-1.1,1.1-1.9c0-0.7-0.3-1.3-0.8-1.7c-0.5-0.4-1.2-0.8-1.9-1.1c-0.8-0.3-1.6-0.6-2.5-0.9c-0.9-0.3-1.7-0.7-2.5-1.2
				c-0.8-0.5-1.4-1.2-1.9-2.1c-0.5-0.9-0.8-2-0.8-3.4c0-1.1,0.2-2.1,0.7-3.1c0.5-0.9,1.1-1.8,2-2.5c0.9-0.7,2-1.3,3.4-1.7
				c1.4-0.4,3-0.6,4.7-0.6c0.7,0,1.5,0,2.3,0.1c0.8,0.1,1.6,0.2,2.4,0.3l-0.2,5c-0.7-0.2-1.5-0.4-2.3-0.5c-0.8-0.1-1.6-0.2-2.4-0.2
				c-1.3,0-2.3,0.2-2.9,0.7c-0.6,0.5-0.9,1.1-0.9,1.9c0,0.7,0.3,1.2,0.8,1.6c0.5,0.4,1.2,0.8,2,1.1c0.8,0.3,1.6,0.6,2.5,1
				c0.9,0.3,1.7,0.8,2.5,1.3c0.8,0.5,1.4,1.2,2,2.1C438.8,330.8,439.1,331.9,439.1,333.2"/>
			<path class="st3" d="M460.6,328.4c0-2.4-0.4-4.3-1.3-5.5c-0.9-1.3-2.3-1.9-4.3-1.9c-0.7,0-1.4,0.1-2.2,0.4
				c-0.7,0.3-1.3,0.7-1.9,1.3c-0.6,0.6-1,1.4-1.3,2.3c-0.3,0.9-0.5,2-0.5,3.3c0,5.2,1.9,7.7,5.8,7.7c1.7,0,3-0.6,4.1-1.9
				C460.1,332.8,460.6,330.9,460.6,328.4 M467.3,328c0,1.9-0.3,3.7-1,5.4c-0.6,1.7-1.5,3.1-2.7,4.2c-1.2,1.2-2.5,2.1-4.1,2.8
				c-1.6,0.7-3.3,1-5.3,1c-1.8,0-3.5-0.2-4.9-0.7c-1.5-0.5-2.7-1.2-3.8-2.2c-1-1-1.8-2.3-2.4-3.9c-0.6-1.6-0.8-3.5-0.8-5.7
				c0-1.9,0.3-3.7,1-5.3c0.6-1.6,1.5-3,2.7-4.2c1.1-1.2,2.5-2.1,4.1-2.8c1.6-0.7,3.4-1,5.3-1c3.6,0,6.5,1,8.7,3
				C466.3,320.6,467.3,323.8,467.3,328"/>
			<path class="st3" d="M486.1,341.1c-1.2,0.2-2.5,0.3-3.8,0.3c-1.8,0-3.4-0.2-4.8-0.7c-1.4-0.5-2.6-1.2-3.6-2.2
				c-1-1-1.8-2.2-2.3-3.8c-0.5-1.5-0.8-3.4-0.8-5.5c0-1.9,0.3-3.7,0.8-5.4c0.5-1.7,1.3-3.1,2.4-4.4c1.1-1.2,2.4-2.2,4.1-2.9
				c1.7-0.7,3.6-1.1,5.9-1.1c1.8,0,3.5,0.2,5.2,0.7l-0.7,5.6c-0.7-0.3-1.4-0.5-2.2-0.6c-0.8-0.2-1.6-0.2-2.4-0.2
				c-2.1,0-3.6,0.7-4.7,2.1c-1,1.4-1.6,3.3-1.6,5.6c0,2.1,0.5,3.9,1.4,5.2c0.9,1.3,2.5,2,4.7,2c0.9,0,1.8-0.1,2.7-0.3
				c0.9-0.2,1.7-0.4,2.4-0.8l0.5,5.5C488.4,340.6,487.3,340.9,486.1,341.1"/>
			<path class="st3" d="M500.3,312.8c-1.1,0-2-0.4-2.8-1.2c-0.8-0.8-1.2-1.7-1.2-2.8c0-0.5,0.1-1,0.3-1.5c0.2-0.5,0.5-0.8,0.9-1.2
				c0.4-0.3,0.8-0.6,1.3-0.8c0.5-0.2,1-0.3,1.6-0.3c1.1,0,2.1,0.4,2.9,1.1c0.8,0.7,1.2,1.6,1.2,2.7c0,1.1-0.4,2-1.2,2.8
				C502.4,312.4,501.5,312.8,500.3,312.8 M494.7,316.2c0.7-0.1,1.7-0.2,3.1-0.2c1.4-0.1,3.3-0.1,5.7,0v25h-6.5v-20
				c-0.4-0.1-0.9-0.1-1.4-0.2c-0.5,0-0.9-0.1-1.3-0.2c-0.6-0.1-1.1-0.3-1.4-0.7c-0.4-0.4-0.6-0.9-0.6-1.5c0-0.6,0.2-1.1,0.6-1.5
				C493.5,316.5,494,316.3,494.7,316.2"/>
			<path class="st3" d="M523.2,329.9c-1.7,0-3.2,0.1-4.3,0.3c-1.1,0.2-2,0.5-2.6,0.9c-0.6,0.4-1,0.8-1.3,1.3
				c-0.2,0.5-0.3,0.9-0.3,1.4c0,0.8,0.3,1.4,0.8,1.9c0.5,0.5,1.3,0.7,2.2,0.7c0.8,0,1.5-0.2,2.2-0.5c0.7-0.3,1.2-0.8,1.7-1.3
				c0.5-0.6,0.8-1.2,1.1-1.9c0.3-0.7,0.4-1.4,0.4-2.2V329.9z M532.3,336.3c0.6,0.1,1.1,0.3,1.4,0.7c0.4,0.4,0.6,0.9,0.6,1.5
				c0,0.6-0.2,1.1-0.6,1.5c-0.4,0.4-0.9,0.6-1.6,0.8c-0.7,0.1-1.6,0.1-3,0.2c-1.3,0.1-3.1,0.1-5.4,0c0-0.5,0-1.1,0.1-1.6
				c0-0.5,0.1-0.9,0.1-1.4c0-0.5,0.1-0.9,0.1-1.2l0-0.1c-0.6,1.4-1.7,2.6-3.1,3.5c-1.5,0.9-3.1,1.4-5,1.4c-2.3,0-4.1-0.6-5.3-1.8
				c-1.3-1.2-1.9-2.8-1.9-4.8c0-1.5,0.4-2.8,1.1-4c0.7-1.1,1.7-2.1,3-2.9c1.3-0.8,2.8-1.3,4.6-1.7c1.8-0.4,3.8-0.6,5.9-0.6v-1.3
				c0-1.3-0.4-2.3-1.1-2.9c-0.7-0.7-2-1-3.9-1c-1.2,0-2.4,0.2-3.8,0.5c-1.4,0.3-2.6,0.8-3.7,1.4l-0.6-5.3c1.3-0.5,2.7-0.8,4.3-1.1
				c1.6-0.3,3.1-0.4,4.8-0.4c2,0,3.7,0.2,5.1,0.6c1.3,0.4,2.4,0.9,3.2,1.7c0.8,0.7,1.4,1.6,1.7,2.7c0.3,1.1,0.5,2.3,0.5,3.6V336
				c0.4,0.1,0.8,0.1,1.3,0.1C531.5,336.2,531.9,336.2,532.3,336.3"/>
			<path class="st3" d="M536.5,321.1c-0.7,0-1.3-0.2-1.8-0.7c-0.5-0.5-0.7-1.1-0.7-1.8c0-0.7,0.2-1.2,0.7-1.7
				c0.5-0.5,1.1-0.7,1.8-0.7h2.1v-7.7l6.5-1.7v9.4h6.2v5h-6.2v10.9c0,1.6,0.2,2.7,0.7,3.2c0.4,0.6,1.2,0.8,2.4,0.8
				c1.1,0,2.1-0.1,3.2-0.4v5.2c-0.9,0.2-1.7,0.4-2.6,0.5c-0.9,0.1-1.8,0.2-2.7,0.2c-1.4,0-2.6-0.1-3.5-0.4c-0.9-0.3-1.7-0.7-2.2-1.3
				c-0.6-0.6-1-1.4-1.2-2.4c-0.2-1-0.4-2.2-0.4-3.6v-12.6H536.5z"/>
			<path class="st3" d="M562.5,312.8c-1.1,0-2-0.4-2.8-1.2c-0.8-0.8-1.2-1.7-1.2-2.8c0-0.5,0.1-1,0.3-1.5c0.2-0.5,0.5-0.8,0.9-1.2
				c0.4-0.3,0.8-0.6,1.3-0.8c0.5-0.2,1-0.3,1.6-0.3c1.1,0,2.1,0.4,2.9,1.1c0.8,0.7,1.2,1.6,1.2,2.7c0,1.1-0.4,2-1.2,2.8
				C564.6,312.4,563.7,312.8,562.5,312.8 M557,316.2c0.7-0.1,1.7-0.2,3.1-0.2c1.4-0.1,3.3-0.1,5.7,0v25h-6.5v-20
				c-0.4-0.1-0.9-0.1-1.4-0.2c-0.5,0-0.9-0.1-1.3-0.2c-0.6-0.1-1.1-0.3-1.4-0.7c-0.4-0.4-0.6-0.9-0.6-1.5c0-0.6,0.2-1.1,0.6-1.5
				C555.7,316.5,556.2,316.3,557,316.2"/>
			<path class="st3" d="M589.4,328.4c0-2.4-0.4-4.3-1.3-5.5c-0.9-1.3-2.3-1.9-4.3-1.9c-0.7,0-1.4,0.1-2.2,0.4
				c-0.7,0.3-1.3,0.7-1.9,1.3c-0.6,0.6-1,1.4-1.3,2.3c-0.3,0.9-0.5,2-0.5,3.3c0,5.2,1.9,7.7,5.8,7.7c1.7,0,3-0.6,4.1-1.9
				C588.9,332.8,589.4,330.9,589.4,328.4 M596.1,328c0,1.9-0.3,3.7-1,5.4c-0.6,1.7-1.5,3.1-2.7,4.2c-1.2,1.2-2.5,2.1-4.1,2.8
				c-1.6,0.7-3.3,1-5.3,1c-1.8,0-3.5-0.2-4.9-0.7c-1.5-0.5-2.7-1.2-3.7-2.2c-1-1-1.8-2.3-2.4-3.9c-0.6-1.6-0.8-3.5-0.8-5.7
				c0-1.9,0.3-3.7,1-5.3c0.6-1.6,1.5-3,2.7-4.2c1.1-1.2,2.5-2.1,4.1-2.8c1.6-0.7,3.4-1,5.3-1c3.6,0,6.5,1,8.7,3
				C595,320.6,596.1,323.8,596.1,328"/>
			<path class="st3" d="M602.2,321c-0.4-0.1-0.9-0.1-1.4-0.2c-0.5-0.1-0.9-0.1-1.3-0.2c-0.6-0.1-1.1-0.3-1.4-0.7
				c-0.4-0.4-0.6-0.9-0.6-1.5c0-0.6,0.2-1.1,0.6-1.5c0.4-0.4,0.9-0.7,1.6-0.7c0.7-0.1,1.6-0.1,3-0.2c1.4-0.1,3.2-0.1,5.5,0v2.2
				c0,0.8-0.1,1.6-0.3,2.3l0.1,0c0.8-1.5,1.9-2.7,3.4-3.6c1.5-0.9,3.2-1.4,5.3-1.4c1.4,0,2.6,0.2,3.6,0.6c1,0.4,1.7,1,2.3,1.7
				c0.6,0.7,1,1.6,1.2,2.5c0.2,1,0.4,2,0.4,3.1v17.5h-6.5V325c0-1.3-0.2-2.3-0.7-3c-0.4-0.7-1.3-1.1-2.4-1.1c-0.8,0-1.6,0.2-2.3,0.7
				c-0.7,0.4-1.4,1-1.9,1.8c-0.5,0.7-1,1.6-1.3,2.5c-0.3,1-0.5,2-0.5,3.1v12h-6.5V321z"/>
			<path class="st3" d="M29.9,329.8c-1.7,0-3.2,0.1-4.3,0.3c-1.1,0.2-2,0.5-2.6,0.9c-0.6,0.4-1,0.8-1.3,1.3
				c-0.2,0.5-0.3,0.9-0.3,1.4c0,0.8,0.3,1.4,0.8,1.9c0.5,0.5,1.3,0.7,2.2,0.7c0.8,0,1.5-0.2,2.2-0.5c0.7-0.3,1.2-0.8,1.7-1.3
				c0.5-0.6,0.8-1.2,1.1-1.9c0.3-0.7,0.4-1.4,0.4-2.2V329.8z M38.9,336.2c0.6,0.1,1.1,0.3,1.4,0.7c0.4,0.4,0.6,0.9,0.6,1.5
				c0,0.6-0.2,1.1-0.6,1.5c-0.4,0.4-0.9,0.7-1.6,0.7c-0.7,0.1-1.6,0.1-3,0.2c-1.3,0.1-3.1,0.1-5.4,0c0-0.5,0-1.1,0.1-1.6
				c0-0.5,0.1-0.9,0.1-1.4c0-0.5,0.1-0.9,0.1-1.2l-0.1,0c-0.6,1.4-1.7,2.6-3.1,3.5c-1.5,0.9-3.1,1.4-5,1.4c-2.3,0-4.1-0.6-5.3-1.8
				c-1.3-1.2-1.9-2.8-1.9-4.8c0-1.5,0.4-2.8,1.1-4c0.7-1.1,1.7-2.1,3-2.9c1.3-0.8,2.8-1.3,4.6-1.7c1.8-0.4,3.8-0.6,5.9-0.6v-1.3
				c0-1.3-0.4-2.3-1.1-2.9c-0.7-0.7-2-1-3.9-1c-1.2,0-2.4,0.2-3.8,0.5c-1.4,0.3-2.6,0.8-3.7,1.4l-0.6-5.3c1.3-0.5,2.7-0.8,4.3-1.1
				c1.6-0.3,3.1-0.4,4.8-0.4c2,0,3.7,0.2,5.1,0.6c1.3,0.4,2.4,0.9,3.2,1.7c0.8,0.7,1.4,1.6,1.7,2.7c0.3,1.1,0.5,2.3,0.5,3.6v11.8
				c0.4,0.1,0.8,0.1,1.3,0.1C38.1,336.1,38.6,336.1,38.9,336.2"/>
			<path class="st3" d="M51.1,340.8h-6.5v-31.6c-0.5-0.1-0.9-0.1-1.4-0.2c-0.4,0-0.9-0.1-1.2-0.2c-0.6-0.1-1.1-0.3-1.4-0.7
				c-0.4-0.4-0.6-0.9-0.6-1.5c0-0.6,0.2-1.1,0.6-1.5c0.4-0.4,0.9-0.7,1.6-0.7c0.7-0.1,1.7-0.1,3.1-0.2c1.4-0.1,3.3-0.1,5.8,0V340.8z
				"/>
			<path class="st3" d="M59.6,321.7c-0.8,0-1.5-0.3-2-0.8c-0.6-0.5-0.9-1.2-0.9-2c0-0.8,0.3-1.4,0.9-2c0.6-0.6,1.3-0.8,2-0.8h15.2
				v4.6l-10,14.5c0.3,0,0.8,0,1.6,0H69h3.5c0.8,0,1.5,0.3,2.1,0.9c0.6,0.6,0.9,1.3,0.9,2.1c0,0.8-0.3,1.5-0.9,2.1
				c-0.6,0.6-1.3,0.8-2.1,0.8H56.7v-4.6l10.2-14.7c-0.5,0-1.2,0-2.2,0.1s-2,0-3.3,0H59.6z"/>
			<path class="st3" d="M87.4,315c0,0.7,0,1.6-0.1,2.5c-0.1,0.9-0.2,1.8-0.4,2.6l0.1,0.1c0.8-1.4,1.8-2.5,3.3-3.4
				c1.4-0.9,3.1-1.3,5.2-1.3c1.4,0,2.6,0.2,3.6,0.6c1,0.4,1.8,1,2.3,1.7c0.6,0.7,1,1.6,1.3,2.5c0.3,1,0.4,2,0.4,3.1v17.4h-6.5V325
				c0-1.3-0.2-2.3-0.7-3.1c-0.4-0.7-1.3-1.1-2.5-1.1c-0.8,0-1.6,0.2-2.3,0.7c-0.7,0.4-1.4,1-1.9,1.8c-0.5,0.7-1,1.6-1.3,2.6
				c-0.3,1-0.5,2-0.5,3.1v12h-6.5v-31.6c-0.7-0.1-1.2-0.2-1.5-0.2c-0.3,0-0.7-0.1-1.1-0.1c-0.6-0.1-1.1-0.3-1.4-0.7
				c-0.4-0.4-0.6-0.9-0.6-1.5c0-0.6,0.2-1.1,0.6-1.5c0.4-0.4,0.9-0.7,1.6-0.7c0.7-0.1,1.7-0.1,3.1-0.2c1.4-0.1,3.3-0.1,5.8,0V315z"
				/>
			<path class="st3" d="M122.9,321.4c-0.8-0.9-1.9-1.3-3.3-1.3c-1.4,0-2.5,0.5-3.4,1.4c-0.9,0.9-1.4,2.1-1.6,3.6h9.5
				C124.1,323.5,123.7,322.3,122.9,321.4 M130.5,326.5c0,0.4,0,0.9-0.1,1.4c0,0.5-0.1,1-0.2,1.5h-15.8c0,4.6,2.3,6.9,7.1,6.9
				c1.3,0,2.6-0.1,3.9-0.4c1.3-0.3,2.5-0.7,3.6-1.2l0.6,5c-1.4,0.5-2.8,0.9-4.4,1.2c-1.6,0.3-3.1,0.4-4.8,0.4c-4.1,0-7.2-1-9.4-3
				c-2.2-2-3.3-5.3-3.3-9.7c0-1.9,0.3-3.7,0.8-5.3c0.5-1.6,1.3-3,2.3-4.2c1-1.2,2.3-2.1,3.7-2.8c1.5-0.7,3.2-1,5.1-1
				c1.8,0,3.4,0.3,4.8,0.9c1.4,0.6,2.5,1.4,3.3,2.4c0.9,1,1.5,2.2,2,3.5C130.3,323.6,130.5,325,130.5,326.5"/>
			<path class="st3" d="M140.9,312.7c-1.1,0-2-0.4-2.8-1.1c-0.8-0.8-1.2-1.7-1.2-2.8c0-0.5,0.1-1,0.3-1.5c0.2-0.5,0.5-0.9,0.9-1.2
				c0.4-0.3,0.8-0.6,1.3-0.8c0.5-0.2,1-0.3,1.6-0.3c1.1,0,2.1,0.4,2.9,1.1c0.8,0.7,1.2,1.6,1.2,2.7c0,1.1-0.4,2-1.2,2.8
				C143,312.3,142,312.7,140.9,312.7 M135.3,316.1c0.7-0.1,1.7-0.2,3.1-0.2c1.4-0.1,3.3-0.1,5.7,0v25h-6.5v-20
				c-0.4-0.1-0.9-0.1-1.4-0.2c-0.5,0-0.9-0.1-1.3-0.2c-0.6-0.1-1.1-0.3-1.4-0.7c-0.4-0.4-0.6-0.9-0.6-1.5c0-0.6,0.2-1.1,0.6-1.5
				C134,316.5,134.6,316.2,135.3,316.1"/>
			<path class="st3" d="M153.1,321c-0.4-0.1-0.9-0.1-1.4-0.2c-0.5,0-0.9-0.1-1.3-0.2c-0.6-0.1-1.1-0.3-1.4-0.7
				c-0.4-0.4-0.6-0.9-0.6-1.5c0-0.6,0.2-1.1,0.6-1.5c0.4-0.4,0.9-0.7,1.6-0.7c0.6-0.1,1.7-0.1,3-0.2c1.4-0.1,3.2-0.1,5.4,0
				c0,0.6,0,1.3-0.1,2.2c-0.1,0.8-0.1,1.6-0.2,2.3h0.2c0.8-1.5,1.9-2.7,3.4-3.7c1.4-0.9,3.1-1.4,5-1.4c1.1,0,2.1,0.2,2.9,0.5
				c0.8,0.3,1.5,0.7,2.1,1.2c0.5,0.5,1,1,1.3,1.6c0.3,0.6,0.6,1.2,0.7,1.8c0.3-0.6,0.7-1.2,1.2-1.8c0.5-0.6,1.1-1.2,1.8-1.6
				c0.7-0.5,1.5-0.9,2.4-1.1c0.9-0.3,1.9-0.4,2.9-0.4c2.4,0,4.3,0.7,5.6,2c1.3,1.3,2,3.4,2,6.3v17.2h-6.5v-15.7
				c0-1.3-0.2-2.4-0.6-3.2c-0.4-0.8-1.2-1.2-2.4-1.2c-0.7,0-1.4,0.2-2.1,0.6c-0.7,0.4-1.3,1-1.9,1.7c-0.5,0.7-1,1.6-1.3,2.6
				c-0.3,1-0.5,2.1-0.5,3.3v11.9h-6.5v-15.7c0-0.6,0-1.2-0.1-1.7c-0.1-0.5-0.2-1-0.5-1.4c-0.2-0.4-0.5-0.7-0.9-0.9
				c-0.4-0.2-0.9-0.3-1.5-0.3c-0.7,0-1.5,0.2-2.2,0.6c-0.7,0.4-1.3,1-1.9,1.7c-0.5,0.7-1,1.6-1.3,2.6c-0.3,1-0.5,2.1-0.5,3.2v11.9
				h-6.5V321z"/>
			<path class="st3" d="M210.3,321.4c-0.8-0.9-1.9-1.3-3.3-1.3c-1.4,0-2.5,0.5-3.4,1.4c-0.9,0.9-1.4,2.1-1.6,3.6h9.5
				C211.4,323.5,211.1,322.3,210.3,321.4 M217.9,326.5c0,0.4,0,0.9-0.1,1.4c0,0.5-0.1,1-0.2,1.5h-15.8c0,4.6,2.3,6.9,7,6.9
				c1.3,0,2.6-0.1,3.9-0.4c1.3-0.3,2.5-0.7,3.6-1.2l0.6,5c-1.4,0.5-2.8,0.9-4.4,1.2c-1.6,0.3-3.1,0.4-4.7,0.4c-4.1,0-7.2-1-9.4-3
				c-2.2-2-3.3-5.3-3.3-9.7c0-1.9,0.3-3.7,0.8-5.3c0.5-1.6,1.3-3,2.3-4.2c1-1.2,2.3-2.1,3.7-2.8c1.5-0.7,3.2-1,5.1-1
				c1.8,0,3.4,0.3,4.8,0.9c1.4,0.6,2.5,1.4,3.3,2.4c0.9,1,1.5,2.2,1.9,3.5C217.6,323.6,217.9,325,217.9,326.5"/>
			<path class="st3" d="M231.3,315.9c0,0.7,0,1.5-0.1,2.4c-0.1,0.9-0.2,1.8-0.4,2.7h0.1c0.3-0.8,0.7-1.6,1.1-2.3
				c0.5-0.7,1-1.3,1.7-1.8c0.7-0.5,1.4-0.9,2.3-1.2c0.9-0.3,1.8-0.4,2.9-0.3l-0.3,6.3c-4.7-1-7.1,2-7.1,9v10.1h-6.5v-20
				c-0.4-0.1-0.9-0.1-1.4-0.2c-0.5-0.1-0.9-0.1-1.3-0.2c-0.6-0.1-1.1-0.3-1.4-0.7c-0.4-0.4-0.6-0.9-0.6-1.5s0.2-1.1,0.6-1.5
				c0.4-0.4,0.9-0.7,1.6-0.7c0.6-0.1,1.6-0.1,3-0.2C227.1,315.9,228.9,315.9,231.3,315.9"/>
			<path class="st3" d="M265.8,333.1c0,1.2-0.3,2.4-0.8,3.4c-0.5,1-1.3,1.9-2.3,2.6c-1,0.7-2.2,1.3-3.6,1.7c-1.4,0.4-3,0.6-4.7,0.6
				c-0.9,0-1.8,0-2.7-0.1c-0.9-0.1-1.8-0.2-2.6-0.3l0.2-5.3c0.8,0.2,1.6,0.4,2.6,0.5c0.9,0.1,1.9,0.2,2.9,0.2c1.3,0,2.3-0.2,3-0.7
				c0.8-0.5,1.1-1.1,1.1-1.9c0-0.7-0.3-1.3-0.8-1.7c-0.5-0.4-1.2-0.8-1.9-1c-0.8-0.3-1.6-0.6-2.5-0.9c-0.9-0.3-1.7-0.7-2.5-1.2
				c-0.8-0.5-1.4-1.2-1.9-2.1c-0.5-0.9-0.8-2-0.8-3.4c0-1.1,0.2-2.1,0.7-3.1c0.5-0.9,1.1-1.8,2-2.5c0.9-0.7,2-1.3,3.4-1.7
				c1.4-0.4,3-0.6,4.7-0.6c0.8,0,1.5,0,2.3,0.1c0.8,0.1,1.6,0.2,2.4,0.3l-0.2,5c-0.7-0.2-1.5-0.4-2.3-0.5c-0.8-0.1-1.6-0.2-2.4-0.2
				c-1.3,0-2.3,0.2-2.9,0.7c-0.6,0.5-0.9,1.1-0.9,1.8c0,0.7,0.3,1.2,0.8,1.6c0.5,0.4,1.2,0.8,2,1.1c0.8,0.3,1.6,0.6,2.5,1
				c0.9,0.3,1.7,0.8,2.5,1.3c0.8,0.5,1.4,1.2,2,2.1C265.6,330.7,265.8,331.8,265.8,333.1"/>
			<path class="st3" d="M633.4,316.6c0.9,0,1.1-0.4,1.1-0.9c0-0.5-0.2-0.7-1-0.7h-1.2v1.6H633.4z M632.3,317.6v2.7h-1v-6.2h2
				c1.2,0,2.4,0.3,2.4,1.7c0,0.7-0.4,1.3-1.3,1.4v0c0.9,0.2,1,0.5,1.1,1.2c0.1,0.6,0.2,1.2,0.4,1.8h-1.3c-0.1-0.3-0.2-0.7-0.2-1.1
				c-0.1-0.5-0.1-1-0.4-1.3c-0.2-0.3-0.6-0.2-0.9-0.3H632.3z M637.9,317.2c0-2.4-2-4.3-4.4-4.3c-2.5,0-4.4,1.9-4.4,4.3
				c0,2.4,2,4.3,4.4,4.3C635.9,321.6,637.9,319.6,637.9,317.2 M628.1,317.2c0-2.9,2.4-5.2,5.4-5.2c3,0,5.3,2.3,5.3,5.2
				c0,2.9-2.4,5.3-5.3,5.3C630.5,322.5,628.1,320.1,628.1,317.2"/>
		</g>
	</g>
</g>
</svg>
